<?xml version="1.0" encoding="UTF-8" standalone="no"?>
<!DOCTYPE svg PUBLIC "-//W3C//DTD SVG 1.1//EN"
 "http://www.w3.org/Graphics/SVG/1.1/DTD/svg11.dtd">
<!-- Generated by graphviz version 2.43.0 (0)
 -->
<!-- Title: G Pages: 1 -->
<svg width="3012pt" height="539pt"
 viewBox="0.00 0.00 3012.00 539.00" xmlns="http://www.w3.org/2000/svg" xmlns:xlink="http://www.w3.org/1999/xlink">
<g id="graph0" class="graph" transform="scale(1 1) rotate(0) translate(4 535)">
<title>G</title>
<polygon fill="white" stroke="transparent" points="-4,4 -4,-535 3008,-535 3008,4 -4,4"/>
<g id="clust1" class="cluster">
<title>cluster_module.k3s</title>
<polygon fill="none" stroke="black" points="390,-206 390,-523 2458,-523 2458,-206 390,-206"/>
<text text-anchor="middle" x="1424" y="-507.8" font-family="sans-serif" font-size="14.00">module.k3s</text>
</g>
<!-- data.tencentcloud_availability_zones_by_product.default -->
<g id="node1" class="node">
<title>data.tencentcloud_availability_zones_by_product.default</title>
<polygon fill="none" stroke="black" points="712,-144 305,-144 305,-108 712,-108 712,-144"/>
<text text-anchor="middle" x="508.5" y="-122.3" font-family="sans-serif" font-size="14.00">data.tencentcloud_availability_zones_by_product.default</text>
</g>
<!-- data.tencentcloud_images.default -->
<g id="node2" class="node">
<title>data.tencentcloud_images.default</title>
<polygon fill="none" stroke="black" points="634.5,-90 382.5,-90 382.5,-54 634.5,-54 634.5,-90"/>
<text text-anchor="middle" x="508.5" y="-68.3" font-family="sans-serif" font-size="14.00">data.tencentcloud_images.default</text>
</g>
<!-- data.tencentcloud_instance_types.default -->
<g id="node3" class="node">
<title>data.tencentcloud_instance_types.default</title>
<polygon fill="none" stroke="black" points="661,-36 356,-36 356,0 661,0 661,-36"/>
<text text-anchor="middle" x="508.5" y="-14.3" font-family="sans-serif" font-size="14.00">data.tencentcloud_instance_types.default</text>
</g>
<!-- helm_release.argo_cd -->
<g id="node4" class="node">
<title>helm_release.argo_cd</title>
<polygon fill="none" stroke="black" points="2684.5,-484 2518.5,-484 2518.5,-448 2684.5,-448 2684.5,-484"/>
<text text-anchor="middle" x="2601.5" y="-462.3" font-family="sans-serif" font-size="14.00">helm_release.argo_cd</text>
</g>
<!-- module.k3s.null_resource.kubernetes_ready -->
<g id="node18" class="node">
<title>module.k3s.null_resource.kubernetes_ready</title>
<polygon fill="none" stroke="black" points="2450,-430 2214,-430 2214,-394 2450,-394 2450,-430"/>
<text text-anchor="middle" x="2332" y="-408.3" font-family="sans-serif" font-size="14.00">null_resource.kubernetes_ready</text>
</g>
<!-- helm_release.argo_cd&#45;&gt;module.k3s.null_resource.kubernetes_ready -->
<g id="edge1" class="edge">
<title>helm_release.argo_cd&#45;&gt;module.k3s.null_resource.kubernetes_ready</title>
<path fill="none" stroke="black" d="M2518.42,-449.43C2491.22,-443.94 2460.65,-437.77 2432.3,-432.04"/>
<polygon fill="black" stroke="black" points="2432.86,-428.59 2422.37,-430.04 2431.48,-435.45 2432.86,-428.59"/>
</g>
<!-- module.k3s.tls_locally_signed_cert.master_user -->
<g id="node26" class="node">
<title>module.k3s.tls_locally_signed_cert.master_user</title>
<polygon fill="none" stroke="black" points="1357,-309 1096,-309 1096,-273 1357,-273 1357,-309"/>
<text text-anchor="middle" x="1226.5" y="-287.3" font-family="sans-serif" font-size="14.00">tls_locally_signed_cert.master_user</text>
</g>
<!-- helm_release.argo_cd&#45;&gt;module.k3s.tls_locally_signed_cert.master_user -->
<g id="edge2" class="edge">
<title>helm_release.argo_cd&#45;&gt;module.k3s.tls_locally_signed_cert.master_user</title>
<path fill="none" stroke="black" d="M2518.11,-479.35C2412.1,-495.34 2222.09,-520 2058.5,-520 2058.5,-520 2058.5,-520 1777.5,-520 1722.84,-520 1708.17,-517.3 1656,-501 1539.13,-464.48 1499.32,-462.57 1408,-381 1385.65,-361.04 1396.46,-341.31 1372,-324 1366.36,-320 1360.3,-316.48 1353.99,-313.38"/>
<polygon fill="black" stroke="black" points="1355.13,-310.06 1344.58,-309.13 1352.25,-316.44 1355.13,-310.06"/>
</g>
<!-- null_resource.download_k3s_yaml -->
<g id="node5" class="node">
<title>null_resource.download_k3s_yaml</title>
<polygon fill="none" stroke="black" points="3004,-353 2753,-353 2753,-317 3004,-317 3004,-353"/>
<text text-anchor="middle" x="2878.5" y="-331.3" font-family="sans-serif" font-size="14.00">null_resource.download_k3s_yaml</text>
</g>
<!-- null_resource.fetch_kubeconfig -->
<g id="node6" class="node">
<title>null_resource.fetch_kubeconfig</title>
<polygon fill="none" stroke="black" points="2717,-353 2486,-353 2486,-317 2717,-317 2717,-353"/>
<text text-anchor="middle" x="2601.5" y="-331.3" font-family="sans-serif" font-size="14.00">null_resource.fetch_kubeconfig</text>
</g>
<!-- null_resource.download_k3s_yaml&#45;&gt;null_resource.fetch_kubeconfig -->
<g id="edge3" class="edge">
<title>null_resource.download_k3s_yaml&#45;&gt;null_resource.fetch_kubeconfig</title>
<path fill="none" stroke="black" d="M2752.87,-335C2744.29,-335 2735.65,-335 2727.07,-335"/>
<polygon fill="black" stroke="black" points="2727.03,-331.5 2717.03,-335 2727.03,-338.5 2727.03,-331.5"/>
</g>
<!-- null_resource.fetch_kubeconfig&#45;&gt;module.k3s.null_resource.kubernetes_ready -->
<g id="edge4" class="edge">
<title>null_resource.fetch_kubeconfig&#45;&gt;module.k3s.null_resource.kubernetes_ready</title>
<path fill="none" stroke="black" d="M2537.78,-353.05C2498.18,-364.45 2446.88,-379.22 2405.53,-391.12"/>
<polygon fill="black" stroke="black" points="2404.43,-387.8 2395.79,-393.93 2406.36,-394.52 2404.43,-387.8"/>
</g>
<!-- null_resource.fetch_kubeconfig&#45;&gt;module.k3s.tls_locally_signed_cert.master_user -->
<g id="edge5" class="edge">
<title>null_resource.fetch_kubeconfig&#45;&gt;module.k3s.tls_locally_signed_cert.master_user</title>
<path fill="none" stroke="black" d="M2562.39,-316.88C2475.25,-277.17 2253.92,-186 2058.5,-186 2058.5,-186 2058.5,-186 1777.5,-186 1593.97,-186 1552.31,-229.81 1372,-264 1359.83,-266.31 1347.09,-268.71 1334.42,-271.09"/>
<polygon fill="black" stroke="black" points="1333.47,-267.71 1324.28,-272.99 1334.76,-274.59 1333.47,-267.71"/>
</g>
<!-- tencentcloud_instance.web -->
<g id="node7" class="node">
<title>tencentcloud_instance.web</title>
<polygon fill="none" stroke="black" points="999,-144 794,-144 794,-108 999,-108 999,-144"/>
<text text-anchor="middle" x="896.5" y="-122.3" font-family="sans-serif" font-size="14.00">tencentcloud_instance.web</text>
</g>
<!-- tencentcloud_instance.web&#45;&gt;data.tencentcloud_availability_zones_by_product.default -->
<g id="edge6" class="edge">
<title>tencentcloud_instance.web&#45;&gt;data.tencentcloud_availability_zones_by_product.default</title>
<path fill="none" stroke="black" d="M793.83,-126C771.55,-126 747.16,-126 722.32,-126"/>
<polygon fill="black" stroke="black" points="722.03,-122.5 712.03,-126 722.03,-129.5 722.03,-122.5"/>
</g>
<!-- tencentcloud_instance.web&#45;&gt;data.tencentcloud_images.default -->
<g id="edge7" class="edge">
<title>tencentcloud_instance.web&#45;&gt;data.tencentcloud_images.default</title>
<path fill="none" stroke="black" d="M793.62,-110.76C767.06,-106.85 738.47,-102.71 712,-99 690.2,-95.94 667.07,-92.78 644.53,-89.75"/>
<polygon fill="black" stroke="black" points="644.95,-86.27 634.57,-88.41 644.02,-93.21 644.95,-86.27"/>
</g>
<!-- tencentcloud_instance.web&#45;&gt;data.tencentcloud_instance_types.default -->
<g id="edge8" class="edge">
<title>tencentcloud_instance.web&#45;&gt;data.tencentcloud_instance_types.default</title>
<path fill="none" stroke="black" d="M862.41,-107.95C826.46,-89.18 766.81,-60.41 712,-45 698.88,-41.31 685.14,-38.12 671.25,-35.36"/>
<polygon fill="black" stroke="black" points="671.61,-31.87 661.13,-33.43 670.29,-38.74 671.61,-31.87"/>
</g>
<!-- tencentcloud_security_group_lite_rule.default -->
<g id="node9" class="node">
<title>tencentcloud_security_group_lite_rule.default</title>
<polygon fill="none" stroke="black" points="674,-198 343,-198 343,-162 674,-162 674,-198"/>
<text text-anchor="middle" x="508.5" y="-176.3" font-family="sans-serif" font-size="14.00">tencentcloud_security_group_lite_rule.default</text>
</g>
<!-- tencentcloud_instance.web&#45;&gt;tencentcloud_security_group_lite_rule.default -->
<g id="edge9" class="edge">
<title>tencentcloud_instance.web&#45;&gt;tencentcloud_security_group_lite_rule.default</title>
<path fill="none" stroke="black" d="M793.62,-141.24C767.06,-145.15 738.47,-149.29 712,-153 694.06,-155.52 675.22,-158.1 656.55,-160.63"/>
<polygon fill="black" stroke="black" points="655.95,-157.18 646.51,-161.99 656.89,-164.12 655.95,-157.18"/>
</g>
<!-- tencentcloud_security_group.default -->
<g id="node8" class="node">
<title>tencentcloud_security_group.default</title>
<polygon fill="none" stroke="black" points="269,-198 0,-198 0,-162 269,-162 269,-198"/>
<text text-anchor="middle" x="134.5" y="-176.3" font-family="sans-serif" font-size="14.00">tencentcloud_security_group.default</text>
</g>
<!-- tencentcloud_security_group_lite_rule.default&#45;&gt;tencentcloud_security_group.default -->
<g id="edge10" class="edge">
<title>tencentcloud_security_group_lite_rule.default&#45;&gt;tencentcloud_security_group.default</title>
<path fill="none" stroke="black" d="M342.98,-180C321.76,-180 300.15,-180 279.29,-180"/>
<polygon fill="black" stroke="black" points="279.12,-176.5 269.12,-180 279.12,-183.5 279.12,-176.5"/>
</g>
<!-- module.k3s.data.http.k3s_installer -->
<g id="node10" class="node">
<title>module.k3s.data.http.k3s_installer</title>
<polygon fill="none" stroke="black" points="1312.5,-369 1140.5,-369 1140.5,-333 1312.5,-333 1312.5,-369"/>
<text text-anchor="middle" x="1226.5" y="-347.3" font-family="sans-serif" font-size="14.00">data.http.k3s_installer</text>
</g>
<!-- module.k3s.data.http.k3s_version -->
<g id="node11" class="node">
<title>module.k3s.data.http.k3s_version</title>
<polygon fill="none" stroke="black" points="980,-369 813,-369 813,-333 980,-333 980,-369"/>
<text text-anchor="middle" x="896.5" y="-347.3" font-family="sans-serif" font-size="14.00">data.http.k3s_version</text>
</g>
<!-- module.k3s.data.http.k3s_installer&#45;&gt;module.k3s.data.http.k3s_version -->
<g id="edge11" class="edge">
<title>module.k3s.data.http.k3s_installer&#45;&gt;module.k3s.data.http.k3s_version</title>
<path fill="none" stroke="black" d="M1140.18,-351C1094.2,-351 1037.41,-351 990.33,-351"/>
<polygon fill="black" stroke="black" points="990.13,-347.5 980.13,-351 990.13,-354.5 990.13,-347.5"/>
</g>
<!-- module.k3s.null_resource.agents_annotation -->
<g id="node12" class="node">
<title>module.k3s.null_resource.agents_annotation</title>
<polygon fill="none" stroke="black" points="2178,-250 1937,-250 1937,-214 2178,-214 2178,-250"/>
<text text-anchor="middle" x="2057.5" y="-228.3" font-family="sans-serif" font-size="14.00">null_resource.agents_annotation</text>
</g>
<!-- module.k3s.null_resource.agents_install -->
<g id="node14" class="node">
<title>module.k3s.null_resource.agents_install</title>
<polygon fill="none" stroke="black" points="1882.5,-276 1674.5,-276 1674.5,-240 1882.5,-240 1882.5,-276"/>
<text text-anchor="middle" x="1778.5" y="-254.3" font-family="sans-serif" font-size="14.00">null_resource.agents_install</text>
</g>
<!-- module.k3s.null_resource.agents_annotation&#45;&gt;module.k3s.null_resource.agents_install -->
<g id="edge12" class="edge">
<title>module.k3s.null_resource.agents_annotation&#45;&gt;module.k3s.null_resource.agents_install</title>
<path fill="none" stroke="black" d="M1936.61,-243.25C1922,-244.62 1907.11,-246.02 1892.6,-247.38"/>
<polygon fill="black" stroke="black" points="1892.25,-243.9 1882.62,-248.32 1892.91,-250.87 1892.25,-243.9"/>
</g>
<!-- module.k3s.null_resource.agents_drain -->
<g id="node13" class="node">
<title>module.k3s.null_resource.agents_drain</title>
<polygon fill="none" stroke="black" points="2159,-304 1956,-304 1956,-268 2159,-268 2159,-304"/>
<text text-anchor="middle" x="2057.5" y="-282.3" font-family="sans-serif" font-size="14.00">null_resource.agents_drain</text>
</g>
<!-- module.k3s.null_resource.agents_drain&#45;&gt;module.k3s.null_resource.agents_install -->
<g id="edge13" class="edge">
<title>module.k3s.null_resource.agents_drain&#45;&gt;module.k3s.null_resource.agents_install</title>
<path fill="none" stroke="black" d="M1955.71,-275.81C1935.24,-273.74 1913.58,-271.55 1892.71,-269.44"/>
<polygon fill="black" stroke="black" points="1892.84,-265.94 1882.54,-268.42 1892.13,-272.9 1892.84,-265.94"/>
</g>
<!-- module.k3s.null_resource.servers_install -->
<g id="node21" class="node">
<title>module.k3s.null_resource.servers_install</title>
<polygon fill="none" stroke="black" points="1620,-372 1408,-372 1408,-336 1620,-336 1620,-372"/>
<text text-anchor="middle" x="1514" y="-350.3" font-family="sans-serif" font-size="14.00">null_resource.servers_install</text>
</g>
<!-- module.k3s.null_resource.agents_install&#45;&gt;module.k3s.null_resource.servers_install -->
<g id="edge14" class="edge">
<title>module.k3s.null_resource.agents_install&#45;&gt;module.k3s.null_resource.servers_install</title>
<path fill="none" stroke="black" d="M1685.3,-276.07C1675.31,-278.74 1665.38,-281.71 1656,-285 1620.87,-297.3 1583.1,-316.11 1555.5,-330.99"/>
<polygon fill="black" stroke="black" points="1553.65,-328.01 1546.55,-335.87 1557,-334.16 1553.65,-328.01"/>
</g>
<!-- module.k3s.null_resource.agents_label -->
<g id="node15" class="node">
<title>module.k3s.null_resource.agents_label</title>
<polygon fill="none" stroke="black" points="2157.5,-358 1957.5,-358 1957.5,-322 2157.5,-322 2157.5,-358"/>
<text text-anchor="middle" x="2057.5" y="-336.3" font-family="sans-serif" font-size="14.00">null_resource.agents_label</text>
</g>
<!-- module.k3s.null_resource.agents_label&#45;&gt;module.k3s.null_resource.agents_install -->
<g id="edge15" class="edge">
<title>module.k3s.null_resource.agents_label&#45;&gt;module.k3s.null_resource.agents_install</title>
<path fill="none" stroke="black" d="M1959.39,-321.91C1951.67,-319.32 1944.11,-316.36 1937,-313 1918.67,-304.34 1919.34,-293.63 1901,-285 1896.87,-283.06 1892.6,-281.25 1888.24,-279.58"/>
<polygon fill="black" stroke="black" points="1889.15,-276.18 1878.56,-276.1 1886.79,-282.77 1889.15,-276.18"/>
</g>
<!-- module.k3s.null_resource.agents_taint -->
<g id="node16" class="node">
<title>module.k3s.null_resource.agents_taint</title>
<polygon fill="none" stroke="black" points="2156.5,-412 1958.5,-412 1958.5,-376 2156.5,-376 2156.5,-412"/>
<text text-anchor="middle" x="2057.5" y="-390.3" font-family="sans-serif" font-size="14.00">null_resource.agents_taint</text>
</g>
<!-- module.k3s.null_resource.agents_taint&#45;&gt;module.k3s.null_resource.agents_install -->
<g id="edge16" class="edge">
<title>module.k3s.null_resource.agents_taint&#45;&gt;module.k3s.null_resource.agents_install</title>
<path fill="none" stroke="black" d="M1958.27,-380.07C1950.62,-376.57 1943.4,-372.28 1937,-367 1906.29,-341.68 1931.75,-310.27 1901,-285 1898.03,-282.56 1894.88,-280.33 1891.6,-278.28"/>
<polygon fill="black" stroke="black" points="1893.07,-275.1 1882.63,-273.32 1889.68,-281.22 1893.07,-275.1"/>
</g>
<!-- module.k3s.null_resource.k8s_ca_certificates_install -->
<g id="node17" class="node">
<title>module.k3s.null_resource.k8s_ca_certificates_install</title>
<polygon fill="none" stroke="black" points="1372,-255 1081,-255 1081,-219 1372,-219 1372,-255"/>
<text text-anchor="middle" x="1226.5" y="-233.3" font-family="sans-serif" font-size="14.00">null_resource.k8s_ca_certificates_install</text>
</g>
<!-- module.k3s.null_resource.k8s_ca_certificates_install&#45;&gt;tencentcloud_instance.web -->
<g id="edge17" class="edge">
<title>module.k3s.null_resource.k8s_ca_certificates_install&#45;&gt;tencentcloud_instance.web</title>
<path fill="none" stroke="black" d="M1172.07,-218.92C1114.17,-199.33 1021.87,-168.09 960.48,-147.31"/>
<polygon fill="black" stroke="black" points="961.5,-143.96 950.91,-144.07 959.26,-150.59 961.5,-143.96"/>
</g>
<!-- module.k3s.tls_self_signed_cert.kubernetes_ca_certs -->
<g id="node29" class="node">
<title>module.k3s.tls_self_signed_cert.kubernetes_ca_certs</title>
<polygon fill="none" stroke="black" points="1045,-255 748,-255 748,-219 1045,-219 1045,-255"/>
<text text-anchor="middle" x="896.5" y="-233.3" font-family="sans-serif" font-size="14.00">tls_self_signed_cert.kubernetes_ca_certs</text>
</g>
<!-- module.k3s.null_resource.k8s_ca_certificates_install&#45;&gt;module.k3s.tls_self_signed_cert.kubernetes_ca_certs -->
<g id="edge18" class="edge">
<title>module.k3s.null_resource.k8s_ca_certificates_install&#45;&gt;module.k3s.tls_self_signed_cert.kubernetes_ca_certs</title>
<path fill="none" stroke="black" d="M1080.68,-237C1072.17,-237 1063.59,-237 1055.03,-237"/>
<polygon fill="black" stroke="black" points="1055,-233.5 1045,-237 1055,-240.5 1055,-233.5"/>
</g>
<!-- module.k3s.null_resource.kubernetes_ready&#45;&gt;module.k3s.null_resource.agents_annotation -->
<g id="edge19" class="edge">
<title>module.k3s.null_resource.kubernetes_ready&#45;&gt;module.k3s.null_resource.agents_annotation</title>
<path fill="none" stroke="black" d="M2318.39,-393.86C2294.79,-361.4 2240.67,-293.55 2178,-259 2174.73,-257.2 2171.36,-255.52 2167.89,-253.95"/>
<polygon fill="black" stroke="black" points="2169.14,-250.68 2158.56,-250.06 2166.44,-257.14 2169.14,-250.68"/>
</g>
<!-- module.k3s.null_resource.kubernetes_ready&#45;&gt;module.k3s.null_resource.agents_drain -->
<g id="edge20" class="edge">
<title>module.k3s.null_resource.kubernetes_ready&#45;&gt;module.k3s.null_resource.agents_drain</title>
<path fill="none" stroke="black" d="M2308.59,-393.83C2279.98,-371.54 2228.16,-334.1 2178,-313 2173.04,-310.91 2167.89,-308.97 2162.64,-307.17"/>
<polygon fill="black" stroke="black" points="2163.69,-303.83 2153.09,-304.08 2161.53,-310.49 2163.69,-303.83"/>
</g>
<!-- module.k3s.null_resource.kubernetes_ready&#45;&gt;module.k3s.null_resource.agents_label -->
<g id="edge21" class="edge">
<title>module.k3s.null_resource.kubernetes_ready&#45;&gt;module.k3s.null_resource.agents_label</title>
<path fill="none" stroke="black" d="M2272.76,-393.92C2244.3,-385.33 2209.49,-375.18 2178,-367 2169.38,-364.76 2160.39,-362.53 2151.37,-360.37"/>
<polygon fill="black" stroke="black" points="2152.13,-356.96 2141.59,-358.06 2150.52,-363.77 2152.13,-356.96"/>
</g>
<!-- module.k3s.null_resource.kubernetes_ready&#45;&gt;module.k3s.null_resource.agents_taint -->
<g id="edge22" class="edge">
<title>module.k3s.null_resource.kubernetes_ready&#45;&gt;module.k3s.null_resource.agents_taint</title>
<path fill="none" stroke="black" d="M2213.85,-404.26C2198.23,-403.23 2182.27,-402.18 2166.81,-401.15"/>
<polygon fill="black" stroke="black" points="2166.94,-397.66 2156.73,-400.49 2166.48,-404.64 2166.94,-397.66"/>
</g>
<!-- module.k3s.null_resource.servers_annotation -->
<g id="node19" class="node">
<title>module.k3s.null_resource.servers_annotation</title>
<polygon fill="none" stroke="black" points="1901,-330 1656,-330 1656,-294 1901,-294 1901,-330"/>
<text text-anchor="middle" x="1778.5" y="-308.3" font-family="sans-serif" font-size="14.00">null_resource.servers_annotation</text>
</g>
<!-- module.k3s.null_resource.kubernetes_ready&#45;&gt;module.k3s.null_resource.servers_annotation -->
<g id="edge23" class="edge">
<title>module.k3s.null_resource.kubernetes_ready&#45;&gt;module.k3s.null_resource.servers_annotation</title>
<path fill="none" stroke="black" d="M2213.97,-421.3C2106.24,-428.8 1959.77,-435.87 1937,-421 1903.68,-399.24 1931.75,-364.27 1901,-339 1899.59,-337.84 1898.15,-336.74 1896.67,-335.67"/>
<polygon fill="black" stroke="black" points="1898.16,-332.47 1887.84,-330.06 1894.4,-338.38 1898.16,-332.47"/>
</g>
<!-- module.k3s.null_resource.servers_drain -->
<g id="node20" class="node">
<title>module.k3s.null_resource.servers_drain</title>
<polygon fill="none" stroke="black" points="1882,-384 1675,-384 1675,-348 1882,-348 1882,-384"/>
<text text-anchor="middle" x="1778.5" y="-362.3" font-family="sans-serif" font-size="14.00">null_resource.servers_drain</text>
</g>
<!-- module.k3s.null_resource.kubernetes_ready&#45;&gt;module.k3s.null_resource.servers_drain -->
<g id="edge24" class="edge">
<title>module.k3s.null_resource.kubernetes_ready&#45;&gt;module.k3s.null_resource.servers_drain</title>
<path fill="none" stroke="black" d="M2222.62,-430.07C2123.76,-444.49 1985.9,-458.83 1937,-436 1914.42,-425.45 1922.3,-405.95 1901,-393 1897.95,-391.15 1894.79,-389.42 1891.55,-387.81"/>
<polygon fill="black" stroke="black" points="1892.76,-384.52 1882.21,-383.59 1889.88,-390.9 1892.76,-384.52"/>
</g>
<!-- module.k3s.null_resource.servers_label -->
<g id="node22" class="node">
<title>module.k3s.null_resource.servers_label</title>
<polygon fill="none" stroke="black" points="1880.5,-438 1676.5,-438 1676.5,-402 1880.5,-402 1880.5,-438"/>
<text text-anchor="middle" x="1778.5" y="-416.3" font-family="sans-serif" font-size="14.00">null_resource.servers_label</text>
</g>
<!-- module.k3s.null_resource.kubernetes_ready&#45;&gt;module.k3s.null_resource.servers_label -->
<g id="edge25" class="edge">
<title>module.k3s.null_resource.kubernetes_ready&#45;&gt;module.k3s.null_resource.servers_label</title>
<path fill="none" stroke="black" d="M2281.46,-430.07C2251.88,-439.89 2213.31,-451.02 2178,-456 2071.94,-470.95 2043.31,-469.09 1937,-456 1920.63,-453.98 1917.05,-450.79 1901,-447 1891.54,-444.77 1881.65,-442.48 1871.77,-440.24"/>
<polygon fill="black" stroke="black" points="1872.44,-436.8 1861.92,-438.01 1870.9,-443.63 1872.44,-436.8"/>
</g>
<!-- module.k3s.null_resource.servers_taint -->
<g id="node23" class="node">
<title>module.k3s.null_resource.servers_taint</title>
<polygon fill="none" stroke="black" points="1880,-492 1677,-492 1677,-456 1880,-456 1880,-492"/>
<text text-anchor="middle" x="1778.5" y="-470.3" font-family="sans-serif" font-size="14.00">null_resource.servers_taint</text>
</g>
<!-- module.k3s.null_resource.kubernetes_ready&#45;&gt;module.k3s.null_resource.servers_taint -->
<g id="edge26" class="edge">
<title>module.k3s.null_resource.kubernetes_ready&#45;&gt;module.k3s.null_resource.servers_taint</title>
<path fill="none" stroke="black" d="M2291.05,-430.07C2260.73,-442.8 2217.63,-458.8 2178,-466 2082.02,-483.43 1970.91,-484.09 1890.43,-481.17"/>
<polygon fill="black" stroke="black" points="1890.41,-477.66 1880.28,-480.77 1890.14,-484.66 1890.41,-477.66"/>
</g>
<!-- module.k3s.null_resource.servers_annotation&#45;&gt;module.k3s.null_resource.servers_install -->
<g id="edge27" class="edge">
<title>module.k3s.null_resource.servers_annotation&#45;&gt;module.k3s.null_resource.servers_install</title>
<path fill="none" stroke="black" d="M1664.65,-330.06C1653.26,-331.88 1641.68,-333.73 1630.26,-335.56"/>
<polygon fill="black" stroke="black" points="1629.6,-332.12 1620.28,-337.16 1630.71,-339.03 1629.6,-332.12"/>
</g>
<!-- module.k3s.null_resource.servers_drain&#45;&gt;module.k3s.null_resource.servers_install -->
<g id="edge28" class="edge">
<title>module.k3s.null_resource.servers_drain&#45;&gt;module.k3s.null_resource.servers_install</title>
<path fill="none" stroke="black" d="M1674.88,-361.31C1660.28,-360.64 1645.18,-359.95 1630.35,-359.27"/>
<polygon fill="black" stroke="black" points="1630.29,-355.77 1620.14,-358.81 1629.97,-362.76 1630.29,-355.77"/>
</g>
<!-- module.k3s.null_resource.servers_install&#45;&gt;module.k3s.data.http.k3s_installer -->
<g id="edge29" class="edge">
<title>module.k3s.null_resource.servers_install&#45;&gt;module.k3s.data.http.k3s_installer</title>
<path fill="none" stroke="black" d="M1407.91,-352.9C1380.13,-352.6 1350.31,-352.29 1323.07,-352"/>
<polygon fill="black" stroke="black" points="1322.8,-348.5 1312.77,-351.9 1322.73,-355.5 1322.8,-348.5"/>
</g>
<!-- module.k3s.null_resource.servers_install&#45;&gt;module.k3s.null_resource.k8s_ca_certificates_install -->
<g id="edge30" class="edge">
<title>module.k3s.null_resource.servers_install&#45;&gt;module.k3s.null_resource.k8s_ca_certificates_install</title>
<path fill="none" stroke="black" d="M1490.56,-335.76C1463.92,-315.09 1417.37,-281.93 1372,-264 1366.53,-261.84 1360.87,-259.84 1355.1,-258.01"/>
<polygon fill="black" stroke="black" points="1355.88,-254.59 1345.3,-255.07 1353.87,-261.29 1355.88,-254.59"/>
</g>
<!-- module.k3s.random_password.k3s_cluster_secret -->
<g id="node24" class="node">
<title>module.k3s.random_password.k3s_cluster_secret</title>
<polygon fill="none" stroke="black" points="1364,-423 1089,-423 1089,-387 1364,-387 1364,-423"/>
<text text-anchor="middle" x="1226.5" y="-401.3" font-family="sans-serif" font-size="14.00">random_password.k3s_cluster_secret</text>
</g>
<!-- module.k3s.null_resource.servers_install&#45;&gt;module.k3s.random_password.k3s_cluster_secret -->
<g id="edge31" class="edge">
<title>module.k3s.null_resource.servers_install&#45;&gt;module.k3s.random_password.k3s_cluster_secret</title>
<path fill="none" stroke="black" d="M1411.94,-372.05C1388.12,-376.31 1362.59,-380.87 1338.36,-385.2"/>
<polygon fill="black" stroke="black" points="1337.65,-381.77 1328.42,-386.97 1338.88,-388.66 1337.65,-381.77"/>
</g>
<!-- module.k3s.null_resource.servers_label&#45;&gt;module.k3s.null_resource.servers_install -->
<g id="edge32" class="edge">
<title>module.k3s.null_resource.servers_label&#45;&gt;module.k3s.null_resource.servers_install</title>
<path fill="none" stroke="black" d="M1693.71,-401.97C1681.05,-399.07 1668.16,-396.03 1656,-393 1633.67,-387.43 1609.48,-380.92 1587.54,-374.83"/>
<polygon fill="black" stroke="black" points="1588.21,-371.38 1577.64,-372.07 1586.33,-378.13 1588.21,-371.38"/>
</g>
<!-- module.k3s.null_resource.servers_taint&#45;&gt;module.k3s.null_resource.servers_install -->
<g id="edge33" class="edge">
<title>module.k3s.null_resource.servers_taint&#45;&gt;module.k3s.null_resource.servers_install</title>
<path fill="none" stroke="black" d="M1680.97,-455.98C1672.4,-453.35 1663.96,-450.37 1656,-447 1614.65,-429.47 1572.31,-399.63 1544.96,-378.48"/>
<polygon fill="black" stroke="black" points="1547.01,-375.64 1536.98,-372.22 1542.69,-381.15 1547.01,-375.64"/>
</g>
<!-- module.k3s.tls_cert_request.master_user -->
<g id="node25" class="node">
<title>module.k3s.tls_cert_request.master_user</title>
<polygon fill="none" stroke="black" points="1005,-309 788,-309 788,-273 1005,-273 1005,-309"/>
<text text-anchor="middle" x="896.5" y="-287.3" font-family="sans-serif" font-size="14.00">tls_cert_request.master_user</text>
</g>
<!-- module.k3s.tls_private_key.master_user -->
<g id="node28" class="node">
<title>module.k3s.tls_private_key.master_user</title>
<polygon fill="none" stroke="black" points="612.5,-309 404.5,-309 404.5,-273 612.5,-273 612.5,-309"/>
<text text-anchor="middle" x="508.5" y="-287.3" font-family="sans-serif" font-size="14.00">tls_private_key.master_user</text>
</g>
<!-- module.k3s.tls_cert_request.master_user&#45;&gt;module.k3s.tls_private_key.master_user -->
<g id="edge34" class="edge">
<title>module.k3s.tls_cert_request.master_user&#45;&gt;module.k3s.tls_private_key.master_user</title>
<path fill="none" stroke="black" d="M787.98,-291C736.64,-291 675.18,-291 623.08,-291"/>
<polygon fill="black" stroke="black" points="622.79,-287.5 612.79,-291 622.79,-294.5 622.79,-287.5"/>
</g>
<!-- module.k3s.tls_locally_signed_cert.master_user&#45;&gt;module.k3s.tls_cert_request.master_user -->
<g id="edge35" class="edge">
<title>module.k3s.tls_locally_signed_cert.master_user&#45;&gt;module.k3s.tls_cert_request.master_user</title>
<path fill="none" stroke="black" d="M1095.87,-291C1069.31,-291 1041.49,-291 1015.37,-291"/>
<polygon fill="black" stroke="black" points="1015.07,-287.5 1005.07,-291 1015.07,-294.5 1015.07,-287.5"/>
</g>
<!-- module.k3s.tls_locally_signed_cert.master_user&#45;&gt;module.k3s.tls_self_signed_cert.kubernetes_ca_certs -->
<g id="edge36" class="edge">
<title>module.k3s.tls_locally_signed_cert.master_user&#45;&gt;module.k3s.tls_self_signed_cert.kubernetes_ca_certs</title>
<path fill="none" stroke="black" d="M1115.82,-272.94C1084.1,-267.72 1049.31,-261.99 1017.01,-256.68"/>
<polygon fill="black" stroke="black" points="1017.51,-253.21 1007.07,-255.04 1016.37,-260.12 1017.51,-253.21"/>
</g>
<!-- module.k3s.tls_private_key.kubernetes_ca -->
<g id="node27" class="node">
<title>module.k3s.tls_private_key.kubernetes_ca</title>
<polygon fill="none" stroke="black" points="619,-255 398,-255 398,-219 619,-219 619,-255"/>
<text text-anchor="middle" x="508.5" y="-233.3" font-family="sans-serif" font-size="14.00">tls_private_key.kubernetes_ca</text>
</g>
<!-- module.k3s.tls_self_signed_cert.kubernetes_ca_certs&#45;&gt;module.k3s.tls_private_key.kubernetes_ca -->
<g id="edge37" class="edge">
<title>module.k3s.tls_self_signed_cert.kubernetes_ca_certs&#45;&gt;module.k3s.tls_private_key.kubernetes_ca</title>
<path fill="none" stroke="black" d="M747.92,-237C708.82,-237 667.08,-237 629.63,-237"/>
<polygon fill="black" stroke="black" points="629.18,-233.5 619.18,-237 629.18,-240.5 629.18,-233.5"/>
</g>
</g>
</svg>
